<svg xmlns="http://www.w3.org/2000/svg" viewBox="0 0 24 24" enable-background="new 0 0 24 24"><switch><g><circle fill="#fff" cx="11.9" cy="11.8" r="9.6"/><path fill="#00b5e2" d="m12 0c-6.6 0-12 5.4-12 12s5.4 12 12 12c6.6 0 12-5.4 12-12s-5.4-12-12-12m-.6 4.2c.6 0 1.1.5 1.1 1.1 0 .6-.5 1.1-1.1 1.1-.6 0-1.1-.5-1.1-1.1 0-.6.5-1.1 1.1-1.1m4 15.9h-6.8c-.3 0-.6-.3-.6-.6 0-.3.3-.6.6-.6h2.8v-9h-1.7c-.3 0-.6-.3-.6-.6 0-.3.3-.6.6-.6h2.3c.3 0 .6.3.6.6v9.6h2.8c.3 0 .6.3.6.6 0 .3-.3.6-.6.6"/></g></switch></svg>